<svg width="91" height="132" viewBox="0 0 91 132" fill="none" xmlns="http://www.w3.org/2000/svg">
<path d="M0 5.5V126.5C0 129.261 2.23858 131.5 5 131.5H80.8508C84.9982 131.5 87.3426 126.741 84.8151 123.453L50.6849 79.047C48.1574 75.7586 50.5018 71 54.6492 71H86C88.7614 71 91 68.7614 91 66V5.5C91 2.73857 88.7614 0.5 86 0.5H5C2.23858 0.5 0 2.73858 0 5.5Z" fill="#D9D9D9"/>
<path d="M45.5 25C52.4036 25 58 30.5964 58 37.5C58 44.4036 52.4036 50 45.5 50C38.5964 50 33 44.4036 33 37.5C33 30.5964 38.5964 25 45.5 25Z" fill="#666666"/>
</svg>
